<svg width="126" height="83" viewBox="0 0 126 83" fill="none" xmlns="http://www.w3.org/2000/svg">
<path d="M86.523 48.9452L81.1873 57.4203C81.0648 57.6144 80.9013 57.7793 80.7082 57.9034C80.5152 58.0275 80.2973 58.1079 80.0699 58.1388C79.7119 58.1861 79.3488 58.1039 79.0461 57.9071L78.8162 57.7623L69.5039 49.2391C69.231 48.9911 69.0552 48.6539 69.0082 48.2881C68.9611 47.9223 69.0458 47.5517 69.2471 47.2427L73.3833 40.6728C73.6027 40.3244 73.9516 40.0773 74.3531 39.986C74.7547 39.8947 75.1761 39.9667 75.5245 40.1861L86.0363 46.804C86.3848 47.0234 86.6318 47.3723 86.7231 47.7738C86.8144 48.1754 86.7424 48.5968 86.523 48.9452ZM95.3325 33.8961C95.2617 33.6823 95.1453 33.4865 94.9913 33.3223C94.8373 33.158 94.6494 33.0292 94.4407 32.9447L82.7294 28.2321C82.3909 28.0945 82.0146 28.0807 81.6669 28.1932C81.3192 28.3057 81.0223 28.5373 80.8285 28.8471L76.6923 35.417C76.4729 35.7655 76.4009 36.1868 76.4922 36.5884C76.5835 36.9899 76.8305 37.3388 77.179 37.5582L87.6908 44.1761C88.0393 44.3955 88.4606 44.4675 88.8622 44.3762C89.2637 44.2849 89.6126 44.0379 89.832 43.6894L95.1677 35.2143C95.2897 35.0199 95.3677 34.8012 95.3962 34.5734C95.4246 34.3457 95.4029 34.1145 95.3325 33.8961ZM104.432 58.3854L91.2922 50.113C90.9437 49.8936 90.5223 49.8216 90.1207 49.9129C89.7192 50.0042 89.3703 50.2512 89.1509 50.5997L83.2052 60.0439C83.0152 60.3522 82.9389 60.7172 82.9896 61.0757C83.0402 61.4343 83.2146 61.7639 83.4826 62.0075L95.1126 72.6779L95.3425 72.8226C95.6474 73.0231 96.0171 73.1001 96.3766 73.0379C96.5984 73.0104 96.8114 72.9348 97.0008 72.8164C97.1903 72.698 97.3516 72.5396 97.4734 72.3523L104.919 60.5266C105.138 60.1781 105.21 59.7568 105.119 59.3552C105.027 58.9536 104.78 58.6048 104.432 58.3854ZM115.827 42.1433C115.763 41.9256 115.651 41.7254 115.498 41.5577C115.345 41.3901 115.156 41.2593 114.946 41.1755L100.296 35.3011C99.9608 35.1647 99.5882 35.1499 99.243 35.2593C98.8977 35.3686 98.6016 35.5951 98.4057 35.8997L92.4599 45.3439C92.2405 45.6923 92.1685 46.1137 92.2598 46.5153C92.3511 46.9168 92.5982 47.2657 92.9466 47.4851L106.086 55.7575C106.435 55.9769 106.856 56.0488 107.258 55.9576C107.659 55.8663 108.008 55.6192 108.228 55.2707L115.673 43.445C115.793 43.253 115.869 43.0366 115.896 42.8115C115.923 42.5864 115.899 42.3582 115.827 42.1433Z" fill="black" fill-opacity="0.1"/>
<path d="M33.8458 15.0767L33.4052 14.8898L35.586 10.0765C35.6826 9.78999 35.6692 9.47779 35.5484 9.20062C35.4276 8.92345 35.208 8.70113 34.9323 8.5769C34.6567 8.45267 34.3446 8.43542 34.057 8.5285C33.7693 8.62158 33.5265 8.81834 33.3759 9.0805L31.1184 14.1158C27.7646 13.2555 24.2267 13.4547 20.9906 14.6859C17.7546 15.9171 14.979 18.12 13.0453 20.9921L7.97994 18.6977C7.69343 18.6011 7.38123 18.6145 7.10406 18.7353C6.82689 18.8562 6.60456 19.0758 6.48034 19.3514C6.35611 19.6271 6.33886 19.9391 6.43194 20.2268C6.52502 20.5145 6.72178 20.7572 6.98394 20.9079L11.8448 23.0867C10.8356 25.1742 10.2628 27.4456 10.1614 29.762C10.0599 32.0784 10.432 34.3912 11.2548 36.5589L12.4742 39.7791C12.7002 40.3758 13.154 40.8583 13.7357 41.1205C14.3174 41.3827 14.9795 41.403 15.5762 41.177L42.5752 30.9527C43.1719 30.7267 43.6544 30.273 43.9166 29.6913C44.1787 29.1095 44.199 28.4475 43.9731 27.8508L42.695 24.4759C41.9165 22.4009 40.7333 20.5014 39.2141 18.8878C37.6949 17.2743 35.8701 15.9788 33.8458 15.0767ZM21.8833 32.3571C21.5496 32.4835 21.1858 32.5081 20.8381 32.4278C20.4904 32.3474 20.1743 32.1658 19.9298 31.9058C19.6854 31.6458 19.5235 31.3192 19.4646 30.9672C19.4058 30.6152 19.4526 30.2537 19.5992 29.9283C19.7459 29.603 19.9857 29.3284 20.2883 29.1393C20.591 28.9503 20.943 28.8552 21.2997 28.8662C21.6564 28.8771 22.0018 28.9936 22.2923 29.2009C22.5828 29.4082 22.8053 29.6969 22.9317 30.0307C23.1012 30.4782 23.086 30.9747 22.8893 31.411C22.6927 31.8473 22.3308 32.1876 21.8833 32.3571ZM32.0079 28.523C31.6742 28.6494 31.3105 28.674 30.9627 28.5936C30.615 28.5133 30.2989 28.3317 30.0545 28.0717C29.81 27.8117 29.6481 27.4851 29.5892 27.1331C29.5304 26.7811 29.5772 26.4196 29.7239 26.0942C29.8705 25.7689 30.1103 25.4943 30.413 25.3052C30.7156 25.1162 31.0676 25.0211 31.4243 25.032C31.781 25.043 32.1264 25.1595 32.4169 25.3668C32.7074 25.574 32.93 25.8628 33.0563 26.1966C33.2258 26.6441 33.2106 27.1406 33.014 27.5769C32.8173 28.0132 32.4555 28.3535 32.0079 28.523Z" fill="black" fill-opacity="0.1"/>
</svg>
