<svg width="282" height="182" viewBox="0 0 282 182" fill="none" xmlns="http://www.w3.org/2000/svg">
<path d="M202.002 104.273L189.545 124.059C189.259 124.512 188.877 124.897 188.427 125.187C187.976 125.477 187.467 125.665 186.936 125.737C186.101 125.847 185.253 125.655 184.546 125.196L184.009 124.858L162.268 104.959C161.631 104.38 161.221 103.593 161.111 102.739C161.001 101.885 161.199 101.02 161.669 100.298L171.325 84.9596C171.838 84.146 172.652 83.5692 173.59 83.3561C174.527 83.143 175.511 83.3111 176.324 83.8233L200.866 99.2739C201.679 99.7861 202.256 100.601 202.469 101.538C202.682 102.476 202.514 103.459 202.002 104.273ZM222.569 69.1382C222.404 68.6392 222.132 68.182 221.773 67.7985C221.413 67.415 220.975 67.1142 220.487 66.9171L193.145 55.9146C192.355 55.5934 191.477 55.5613 190.665 55.824C189.853 56.0866 189.16 56.6272 188.707 57.3506L179.051 72.689C178.539 73.5026 178.37 74.4863 178.584 75.4238C178.797 76.3613 179.373 77.1757 180.187 77.688L204.728 93.1386C205.542 93.6508 206.526 93.8188 207.463 93.6057C208.401 93.3926 209.215 92.8158 209.727 92.0022L222.184 72.2158C222.469 71.762 222.651 71.2513 222.718 70.7196C222.784 70.188 222.734 69.6482 222.569 69.1382ZM243.813 126.312L213.136 106.999C212.323 106.487 211.339 106.319 210.402 106.532C209.464 106.745 208.65 107.322 208.137 108.136L194.256 130.184C193.812 130.904 193.634 131.756 193.753 132.593C193.871 133.431 194.278 134.2 194.904 134.769L222.056 159.681L222.593 160.019C223.304 160.487 224.168 160.666 225.007 160.521C225.525 160.457 226.022 160.281 226.464 160.004C226.907 159.728 227.283 159.358 227.568 158.921L244.95 131.311C245.462 130.498 245.63 129.514 245.417 128.577C245.204 127.639 244.627 126.825 243.813 126.312ZM270.417 88.3926C270.268 87.8845 270.006 87.417 269.649 87.0256C269.292 86.6341 268.851 86.3289 268.359 86.1332L234.158 72.4184C233.375 72.1001 232.505 72.0655 231.699 72.3207C230.893 72.576 230.201 73.1049 229.744 73.816L215.863 95.8649C215.351 96.6785 215.183 97.6622 215.396 98.5997C215.609 99.5372 216.186 100.352 216.999 100.864L247.676 120.177C248.489 120.689 249.473 120.857 250.411 120.644C251.348 120.431 252.163 119.854 252.675 119.041L270.057 91.4318C270.338 90.9833 270.516 90.4782 270.578 89.9527C270.641 89.4271 270.586 88.8943 270.417 88.3926Z" fill="black" fill-opacity="0.1"/>
<path d="M79.0185 25.1995L77.9899 24.7632L83.0813 13.5257C83.3069 12.8568 83.2756 12.1279 82.9935 11.4808C82.7114 10.8337 82.1987 10.3147 81.5551 10.0247C80.9116 9.73463 80.1831 9.69436 79.5115 9.91167C78.8399 10.129 78.2731 10.5883 77.9214 11.2004L72.6508 22.9562C64.8209 20.9477 56.5611 21.4126 49.006 24.2871C41.4508 27.1616 34.971 32.3047 30.4564 39.01L18.6304 33.6534C17.9615 33.4278 17.2326 33.4591 16.5855 33.7412C15.9384 34.0233 15.4194 34.536 15.1294 35.1795C14.8393 35.8231 14.7991 36.5516 15.0164 37.2232C15.2337 37.8948 15.693 38.4616 16.3051 38.8133L27.6535 43.9002C25.2975 48.7739 23.9602 54.0768 23.7234 59.4848C23.4865 64.8928 24.3551 70.2923 26.2761 75.3532L29.1231 82.8713C29.6507 84.2644 30.71 85.3909 32.0682 86.003C33.4263 86.615 34.9719 86.6625 36.3651 86.1349L99.3986 62.2646C100.792 61.7371 101.918 60.6777 102.53 59.3195C103.142 57.9614 103.19 56.4158 102.662 55.0226L99.6785 47.1434C97.8609 42.2991 95.0984 37.8644 91.5516 34.0972C88.0049 30.3301 83.7446 27.3055 79.0185 25.1995ZM51.0901 65.5435C50.3109 65.8385 49.4617 65.8959 48.6499 65.7084C47.8381 65.5208 47.1002 65.0968 46.5294 64.4898C45.9586 63.8829 45.5806 63.1203 45.4432 62.2985C45.3059 61.4767 45.4152 60.6327 45.7576 59.8731C46.0999 59.1135 46.6597 58.4724 47.3664 58.031C48.073 57.5896 48.8947 57.3677 49.7275 57.3932C50.5603 57.4188 51.3668 57.6907 52.045 58.1747C52.7232 58.6586 53.2427 59.3328 53.5378 60.112C53.9335 61.1568 53.8979 62.316 53.4388 63.3346C52.9798 64.3532 52.1349 65.1478 51.0901 65.5435ZM74.7277 56.5921C73.9485 56.8872 73.0993 56.9446 72.2875 56.757C71.4757 56.5695 70.7378 56.1454 70.167 55.5384C69.5962 54.9315 69.2182 54.1689 69.0808 53.3471C68.9434 52.5254 69.0528 51.6813 69.3951 50.9217C69.7375 50.1621 70.2973 49.5211 71.004 49.0797C71.7106 48.6382 72.5323 48.4163 73.3651 48.4419C74.1979 48.4674 75.0044 48.7394 75.6826 49.2233C76.3608 49.7072 76.8803 50.3814 77.1754 51.1606C77.5711 52.2055 77.5355 53.3647 77.0764 54.3833C76.6174 55.4019 75.7725 56.1964 74.7277 56.5921Z" fill="black" fill-opacity="0.1"/>
</svg>
