<svg width="163" height="68" viewBox="0 0 163 68" fill="none" xmlns="http://www.w3.org/2000/svg">
<path d="M139.168 32.1243L108.323 19.2071C107.641 18.9216 106.874 18.9186 106.19 19.1988C105.506 19.4789 104.962 20.0193 104.676 20.701L102.463 25.9865L96.0713 41.2484C95.7859 41.9301 95.7829 42.6973 96.063 43.3812C96.3432 44.0651 96.8836 44.6097 97.5653 44.8952L128.41 57.8125C129.092 58.098 129.859 58.101 130.543 57.8208C131.227 57.5406 131.772 57.0002 132.057 56.3185L140.662 35.7712C140.948 35.0895 140.951 34.3223 140.67 33.6383C140.39 32.9544 139.85 32.4098 139.168 32.1243ZM116.419 46.7673L113.849 45.6909C113.508 45.5481 113.238 45.2758 113.098 44.9338C112.958 44.5919 112.959 44.2083 113.102 43.8674C113.245 43.5266 113.517 43.2564 113.859 43.1163C114.201 42.9762 114.584 42.9777 114.925 43.1204L117.496 44.1969C117.837 44.3396 118.107 44.6119 118.247 44.9539C118.387 45.2958 118.385 45.6794 118.243 46.0203C118.1 46.3612 117.828 46.6314 117.486 46.7714C117.144 46.9115 116.76 46.91 116.419 46.7673ZM126.701 51.073L121.56 48.9202C121.219 48.7774 120.949 48.5051 120.809 48.1632C120.669 47.8212 120.67 47.4376 120.813 47.0967C120.956 46.7559 121.228 46.4857 121.57 46.3456C121.912 46.2055 122.296 46.207 122.637 46.3497L127.777 48.5026C128.118 48.6454 128.388 48.9177 128.528 49.2596C128.669 49.6016 128.667 49.9852 128.524 50.3261C128.382 50.6669 128.109 50.9371 127.767 51.0772C127.425 51.2173 127.042 51.2158 126.701 51.073ZM105.571 25.7777L107.247 21.7775L138.092 34.6947L136.416 38.695L105.571 25.7777Z" fill="black" fill-opacity="0.1"/>
<path d="M62.4068 19.6778L41.6413 25.2419C41.1824 25.3649 40.7911 25.6651 40.5535 26.0766C40.316 26.4881 40.2516 26.9771 40.3746 27.436L41.328 30.9943L44.081 41.2688C44.204 41.7278 44.5043 42.1191 44.9158 42.3566C45.3272 42.5942 45.8162 42.6586 46.2752 42.5356L67.0406 36.9715C67.4995 36.8485 67.8908 36.5483 68.1284 36.1368C68.366 35.7253 68.4303 35.2363 68.3074 34.7774L64.6009 20.9446C64.4779 20.4857 64.1777 20.0944 63.7662 19.8568C63.3547 19.6192 62.8657 19.5548 62.4068 19.6778ZM56.5987 36.0716L54.8682 36.5353C54.6387 36.5968 54.3942 36.5646 54.1885 36.4458C53.9828 36.327 53.8326 36.1314 53.7711 35.9019C53.7097 35.6724 53.7418 35.4279 53.8606 35.2222C53.9794 35.0165 54.1751 34.8663 54.4045 34.8049L56.135 34.3412C56.3645 34.2797 56.609 34.3119 56.8147 34.4307C57.0204 34.5494 57.1706 34.7451 57.232 34.9746C57.2935 35.204 57.2613 35.4485 57.1426 35.6543C57.0238 35.86 56.8281 36.0101 56.5987 36.0716ZM63.5205 34.2169L60.0596 35.1443C59.8301 35.2058 59.5856 35.1736 59.3798 35.0548C59.1741 34.936 59.024 34.7404 58.9625 34.5109C58.901 34.2814 58.9332 34.0369 59.052 33.8312C59.1708 33.6254 59.3664 33.4753 59.5959 33.4138L63.0568 32.4865C63.2863 32.425 63.5308 32.4572 63.7365 32.576C63.9422 32.6948 64.0924 32.8904 64.1539 33.1199C64.2153 33.3493 64.1832 33.5938 64.0644 33.7996C63.9456 34.0053 63.7499 34.1555 63.5205 34.2169ZM42.8266 29.6654L42.105 26.9723L62.8704 21.4083L63.592 24.1013L42.8266 29.6654Z" fill="black" fill-opacity="0.1"/>
<path d="M21.3721 11.0142L9.44656 4.12895C9.18299 3.97677 8.86976 3.93554 8.57578 4.01431C8.28181 4.09308 8.03116 4.2854 7.87899 4.54897L6.69917 6.59247L3.29241 12.4932C3.14024 12.7567 3.099 13.07 3.17777 13.3639C3.25654 13.6579 3.44887 13.9085 3.71244 14.0607L15.638 20.946C15.9016 21.0981 16.2148 21.1394 16.5088 21.0606C16.8028 20.9818 17.0534 20.7895 17.2056 20.5259L21.7922 12.5818C21.9443 12.3182 21.9856 12.005 21.9068 11.711C21.828 11.417 21.6357 11.1664 21.3721 11.0142ZM11.3161 15.8088L10.3223 15.2351C10.1905 15.159 10.0943 15.0337 10.055 14.8867C10.0156 14.7397 10.0362 14.5831 10.1123 14.4513C10.1884 14.3195 10.3137 14.2233 10.4607 14.184C10.6077 14.1446 10.7643 14.1652 10.8961 14.2413L11.8899 14.815C12.0216 14.8911 12.1178 15.0165 12.1572 15.1634C12.1966 15.3104 12.176 15.467 12.0999 15.5988C12.0238 15.7306 11.8985 15.8268 11.7515 15.8662C11.6045 15.9055 11.4479 15.8849 11.3161 15.8088ZM15.2913 18.1039L13.3037 16.9564C13.1719 16.8803 13.0757 16.755 13.0364 16.608C12.997 16.461 13.0176 16.3044 13.0937 16.1726C13.1698 16.0408 13.2951 15.9446 13.4421 15.9053C13.5891 15.8659 13.7457 15.8865 13.8775 15.9626L15.8651 17.1101C15.9968 17.1862 16.093 17.3115 16.1324 17.4585C16.1718 17.6055 16.1512 17.7621 16.0751 17.8939C15.999 18.0257 15.8737 18.1219 15.7267 18.1612C15.5797 18.2006 15.4231 18.18 15.2913 18.1039ZM7.97986 6.66934L8.87279 5.12274L20.7984 12.008L19.9054 13.5546L7.97986 6.66934Z" fill="black" fill-opacity="0.1"/>
</svg>
