<svg width="295" height="148" viewBox="0 0 295 148" fill="none" xmlns="http://www.w3.org/2000/svg">
<path d="M302.761 69.8867L235.657 41.7852C234.174 41.1641 232.505 41.1576 231.017 41.7671C229.529 42.3766 228.345 43.5522 227.724 45.0353L222.908 56.5338L209.004 89.736C208.383 91.219 208.376 92.8881 208.986 94.376C209.595 95.8638 210.771 97.0486 212.254 97.6697L279.357 125.771C280.84 126.392 282.51 126.399 283.997 125.789C285.485 125.18 286.67 124.004 287.291 122.521L306.011 77.8204C306.632 76.3373 306.638 74.6683 306.029 73.1804C305.419 71.6925 304.244 70.5077 302.761 69.8867ZM253.271 101.742L247.679 99.4006C246.937 99.0901 246.349 98.4977 246.045 97.7537C245.74 97.0098 245.743 96.1753 246.054 95.4337C246.364 94.6922 246.957 94.1044 247.7 93.7996C248.444 93.4949 249.279 93.4981 250.02 93.8087L255.612 96.1505C256.354 96.461 256.942 97.0534 257.247 97.7973C257.551 98.5413 257.548 99.3758 257.237 100.117C256.927 100.859 256.335 101.447 255.591 101.751C254.847 102.056 254.012 102.053 253.271 101.742ZM275.638 111.11L264.455 106.426C263.713 106.115 263.125 105.523 262.82 104.779C262.516 104.035 262.519 103.201 262.829 102.459C263.14 101.718 263.732 101.13 264.476 100.825C265.22 100.52 266.055 100.523 266.796 100.834L277.98 105.518C278.722 105.828 279.31 106.421 279.614 107.164C279.919 107.908 279.916 108.743 279.605 109.484C279.295 110.226 278.702 110.814 277.958 111.119C277.214 111.423 276.38 111.42 275.638 111.11ZM229.671 56.0796L233.315 47.3771L300.419 75.4786L296.774 84.1811L229.671 56.0796Z" fill="black" fill-opacity="0.1"/>
<path d="M135.766 42.8083L90.5911 54.9129C89.5927 55.1804 88.7414 55.8336 88.2246 56.7288C87.7078 57.624 87.5677 58.6878 87.8353 59.6862L89.9094 67.4272L95.8987 89.7794C96.1662 90.7779 96.8194 91.6291 97.7146 92.146C98.6098 92.6628 99.6736 92.8029 100.672 92.5353L145.847 80.4307C146.846 80.1632 147.697 79.51 148.214 78.6148C148.731 77.7196 148.871 76.6558 148.603 75.6574L140.54 45.5641C140.272 44.5657 139.619 43.7145 138.724 43.1976C137.829 42.6808 136.765 42.5407 135.766 42.8083ZM123.131 78.473L119.366 79.4817C118.867 79.6155 118.335 79.5454 117.887 79.287C117.44 79.0286 117.113 78.603 116.98 78.1038C116.846 77.6046 116.916 77.0726 117.174 76.6251C117.433 76.1775 117.858 75.8509 118.357 75.7171L122.122 74.7084C122.621 74.5746 123.153 74.6447 123.601 74.9031C124.048 75.1615 124.375 75.5871 124.509 76.0863C124.642 76.5855 124.572 77.1175 124.314 77.565C124.056 78.0126 123.63 78.3392 123.131 78.473ZM138.189 74.4381L130.66 76.4555C130.161 76.5893 129.629 76.5193 129.181 76.2609C128.734 76.0025 128.407 75.5768 128.273 75.0776C128.14 74.5784 128.21 74.0465 128.468 73.5989C128.726 73.1513 129.152 72.8247 129.651 72.691L137.18 70.6735C137.68 70.5397 138.212 70.6098 138.659 70.8682C139.107 71.1266 139.433 71.5522 139.567 72.0514C139.701 72.5507 139.631 73.0826 139.372 73.5302C139.114 73.9777 138.688 74.3043 138.189 74.4381ZM93.1697 64.5362L91.5999 58.6775L136.775 46.5729L138.345 52.4315L93.1697 64.5362Z" fill="black" fill-opacity="0.1"/>
<path d="M46.4953 23.9614L20.5512 8.98261C19.9778 8.65156 19.2963 8.56185 18.6568 8.73321C18.0173 8.90458 17.472 9.32298 17.1409 9.89638L14.5742 14.342L7.16284 27.1789C6.83179 27.7523 6.74207 28.4338 6.91344 29.0733C7.0848 29.7129 7.50321 30.2581 8.07661 30.5892L34.0207 45.568C34.5941 45.8991 35.2755 45.9888 35.9151 45.8174C36.5546 45.646 37.0999 45.2276 37.431 44.6542L47.409 27.3717C47.7401 26.7983 47.8298 26.1169 47.6584 25.4773C47.4871 24.8378 47.0687 24.2925 46.4953 23.9614ZM24.6183 34.3922L22.4563 33.144C22.1696 32.9784 21.9604 32.7058 21.8747 32.386C21.7891 32.0663 21.8339 31.7256 21.9994 31.4389C22.165 31.1522 22.4376 30.9429 22.7574 30.8573C23.0771 30.7716 23.4179 30.8164 23.7046 30.982L25.8666 32.2302C26.1533 32.3957 26.3625 32.6684 26.4482 32.9881C26.5338 33.3079 26.489 33.6486 26.3235 33.9353C26.1579 34.222 25.8853 34.4312 25.5655 34.5169C25.2457 34.6026 24.905 34.5577 24.6183 34.3922ZM33.2664 39.3852L28.9423 36.8887C28.6556 36.7232 28.4464 36.4505 28.3608 36.1307C28.2751 35.811 28.3199 35.4703 28.4855 35.1836C28.651 34.8969 28.9236 34.6877 29.2434 34.602C29.5632 34.5163 29.9039 34.5611 30.1906 34.7267L34.5146 37.2231C34.8013 37.3887 35.0105 37.6613 35.0962 37.9811C35.1819 38.3009 35.137 38.6416 34.9715 38.9283C34.806 39.215 34.5333 39.4242 34.2136 39.5099C33.8938 39.5955 33.5531 39.5507 33.2664 39.3852ZM17.3604 14.5092L19.3029 11.1446L45.247 26.1235L43.3045 29.4881L17.3604 14.5092Z" fill="black" fill-opacity="0.1"/>
</svg>
