<svg width="29" height="30" viewBox="0 0 29 30" fill="none" xmlns="http://www.w3.org/2000/svg">
<mask id="path-1-inside-1_4616_1115" fill="white">
<path d="M28.2353 15C28.2353 22.7969 21.9146 29.1176 14.1176 29.1176C6.32068 29.1176 -1.35478e-06 22.7969 -6.73145e-07 15C8.48708e-09 7.20301 6.32069 0.88232 14.1176 0.882321C21.9146 0.882322 28.2353 7.20301 28.2353 15Z"/>
</mask>
<path d="M28.2353 15C28.2353 22.7969 21.9146 29.1176 14.1176 29.1176C6.32068 29.1176 -1.35478e-06 22.7969 -6.73145e-07 15C8.48708e-09 7.20301 6.32069 0.88232 14.1176 0.882321C21.9146 0.882322 28.2353 7.20301 28.2353 15Z" fill="#50B593"/>
<path d="M28.2353 29.1176L-1.90735e-06 29.1176L28.2353 29.1176ZM5.61059e-07 0.88232L28.2353 0.882322L5.61059e-07 0.88232ZM28.2353 0.882322L28.2353 29.1176L28.2353 0.882322ZM13.1176 29.1176C5.32068 29.1176 -1 22.7969 -1 15C-1 7.20301 5.32069 0.88232 13.1176 0.882321L14.1176 0.882321C6.87297 0.88232 1 7.20301 0.999999 15C0.999999 22.7969 6.87297 29.1176 14.1176 29.1176L13.1176 29.1176Z" fill="black" fill-opacity="0.1" mask="url(#path-1-inside-1_4616_1115)"/>
<path d="M20.1103 10.8364H7.36029C7.06689 10.8364 6.82904 11.0742 6.82904 11.3676V19.8676C6.82904 20.161 7.06689 20.3989 7.36029 20.3989H20.1103C20.4037 20.3989 20.6415 20.161 20.6415 19.8676V11.3676C20.6415 11.0742 20.4037 10.8364 20.1103 10.8364Z" stroke="white" stroke-linecap="round" stroke-linejoin="round"/>
<path d="M16.3915 18.2739H18.5165" stroke="white" stroke-linecap="round" stroke-linejoin="round"/>
<path d="M13.204 18.2739H14.2665" stroke="white" stroke-linecap="round" stroke-linejoin="round"/>
<path d="M6.82904 13.5524H20.6415" stroke="white" stroke-linecap="round" stroke-linejoin="round"/>
</svg>
