<svg width="20" height="20" viewBox="0 0 20 20" fill="none" xmlns="http://www.w3.org/2000/svg">
<path d="M2.12469 11.1717C1.89819 10.8609 1.78494 10.7055 1.70698 10.4048C1.65326 10.1976 1.65326 9.80305 1.70698 9.59584C1.78494 9.29519 1.89819 9.13979 2.12469 8.82899C3.36587 7.12589 6.08553 4.16699 10 4.16699C13.9145 4.16699 16.6342 7.12589 17.8753 8.82899C18.1019 9.13979 18.2151 9.29519 18.2931 9.59584C18.3468 9.80305 18.3468 10.1976 18.2931 10.4048C18.2151 10.7055 18.1019 10.8609 17.8753 11.1717C16.6342 12.8748 13.9145 15.8337 10 15.8337C6.08553 15.8337 3.36587 12.8748 2.12469 11.1717Z" stroke="#009966" stroke-width="1.5" stroke-linecap="round" stroke-linejoin="round"/>
<path d="M9.99998 11.6663C10.9205 11.6663 11.6666 10.9201 11.6666 9.99967C11.6666 9.0792 10.9205 8.33301 9.99998 8.33301C9.07951 8.33301 8.33331 9.0792 8.33331 9.99967C8.33331 10.9201 9.07951 11.6663 9.99998 11.6663Z" stroke="#009966" stroke-width="1.5" stroke-linecap="round" stroke-linejoin="round"/>
</svg>
