<svg width="192" height="24" viewBox="0 0 192 24" fill="none" xmlns="http://www.w3.org/2000/svg">
<path d="M22.6357 7.58615L20.5632 5.25464H12.2734L15.123 8.10426L22.6357 7.58615Z" fill="url(#paint0_linear_4635_6219)"/>
<path d="M34.8113 15.6169L31.4436 12.5082C27.0915 14.5807 15.4684 15.0988 10.201 15.0988L15.123 23.6477L34.8113 15.6169Z" fill="url(#paint1_linear_4635_6219)"/>
<path d="M15.3821 2.14601L17.4545 4.21846C15.6412 4.04575 11.8071 3.70034 10.9781 3.70034C10.1491 3.70034 10.2873 4.56386 10.46 4.99562L14.6049 9.39959L27.0396 8.62242L30.1483 11.7311C25.2262 13.0264 14.4495 15.6688 10.7191 15.876C6.98866 16.0832 4.67442 14.0626 3.9836 13.0264C2.77467 10.2631 0.304992 4.63295 0.0977462 4.21846C-0.16131 3.70035 -0.16131 1.62789 3.46548 0.591667C6.36692 -0.237315 12.6188 1.28248 15.3821 2.14601Z" fill="url(#paint2_linear_4635_6219)"/>
<path d="M47.641 18.0108C47.0879 18.0108 46.8113 17.6505 46.8113 16.9297V5.08108C46.8113 4.36036 47.0879 4 47.641 4H56.4773C57.1687 4 57.5144 4.31712 57.5144 4.95135C57.5144 5.52793 57.1687 5.81622 56.4773 5.81622H48.5537V9.23243H53.926C54.7004 9.23243 55.0876 9.54955 55.0876 10.1838C55.0876 10.7604 54.7004 11.0486 53.926 11.0486H48.5537V16.1946H56.4773C57.1687 16.1946 57.5144 16.5117 57.5144 17.1459C57.5144 17.7225 57.1687 18.0108 56.4773 18.0108H47.641Z" fill="#020618"/>
<path d="M59.4589 20C58.8781 20 58.5877 19.6324 58.5877 18.8973V17.8811C58.5877 16.7351 59.0993 16.173 60.1226 16.1946H60.6619L59.7285 16.627C61.2427 14.2054 61.9894 11.2577 61.9687 7.78378H68.5026V16.1946H69.0626C69.9891 16.1946 70.4523 16.7568 70.4523 17.8811V18.8973C70.4523 19.6324 70.1619 20 69.5812 20C69.0004 20 68.71 19.6324 68.71 18.8973V18.0108H60.33V18.8973C60.33 19.6324 60.0397 20 59.4589 20ZM61.9791 16.1946H66.698V9.6H63.8563C63.7733 11.9568 63.1476 14.155 61.9791 16.1946Z" fill="#020618"/>
<path d="M81.9751 18.1622C81.3943 18.1622 81.1039 17.7874 81.1039 17.0378V10.3568L73.9789 18.0108H72.3506V8.69189C72.3506 7.98558 72.641 7.63243 73.2218 7.63243C73.8026 7.63243 74.093 8.00721 74.093 8.75676V15.5243L81.2802 7.78378H82.8463V17.1027C82.8463 17.809 82.5559 18.1622 81.9751 18.1622Z" fill="#020618"/>
<path d="M86.5904 18.1622C86.0096 18.1622 85.7192 17.8162 85.7192 17.1243V8.69189C85.7192 7.98558 85.9958 7.63243 86.5489 7.63243C87.1574 7.63243 87.4616 7.98558 87.4616 8.69189V11.6973H94.4725V8.69189C94.4725 7.98558 94.7629 7.63243 95.3437 7.63243C95.9245 7.63243 96.2149 7.98558 96.2149 8.69189V17.1243C96.2149 17.8162 95.9245 18.1622 95.3437 18.1622C94.7629 18.1622 94.4725 17.8162 94.4725 17.1243V13.5135H87.4616V17.1243C87.4616 17.8162 87.1712 18.1622 86.5904 18.1622Z" fill="#020618"/>
<path d="M107.718 18.1622C107.545 18.1622 107.403 18.1081 107.292 18C107.182 17.8991 107.099 17.6793 107.044 17.3405C106.995 17.0018 106.971 16.4829 106.971 15.7838L107.199 16.3459C106.764 16.973 106.217 17.409 105.56 17.6541C104.911 17.8919 104.143 18.0108 103.258 18.0108H101.329C100.575 18.0108 99.96 17.7513 99.483 17.2324C99.0128 16.7063 98.7777 15.9135 98.7777 14.8541C98.7777 14.191 98.8814 13.6324 99.0889 13.1784C99.2963 12.7171 99.6178 12.3459 100.053 12.0649C100.489 11.7766 101.046 11.5676 101.723 11.4378C102.401 11.3081 103.21 11.2432 104.15 11.2432H107.655L106.867 11.9784V10.3784C106.867 10.0613 106.815 9.85225 106.712 9.75135C106.615 9.65045 106.397 9.6 106.058 9.6H103.134C102.435 9.6 101.899 9.61802 101.526 9.65405C101.16 9.69009 100.904 9.76216 100.759 9.87027C100.613 9.97117 100.534 10.1189 100.52 10.3135C100.492 10.6883 100.427 10.9658 100.323 11.1459C100.219 11.3261 99.9946 11.4162 99.6489 11.4162C99.0681 11.4162 98.7777 11.027 98.7777 10.2486C98.7777 9.39099 99.12 8.76757 99.8045 8.37838C100.489 7.98198 101.55 7.78378 102.988 7.78378H106.204C107.089 7.78378 107.711 8.0036 108.07 8.44324C108.43 8.88288 108.61 9.64324 108.61 10.7243V17.1243C108.61 17.8162 108.312 18.1622 107.718 18.1622ZM101.391 16.2811H103.258C104.565 16.2811 105.491 16.0072 106.038 15.4595C106.591 14.9045 106.867 14.0324 106.867 12.8432L106.992 12.973H104.15C103.237 12.973 102.515 13.0198 101.982 13.1135C101.457 13.2 101.08 13.373 100.852 13.6324C100.631 13.8919 100.52 14.2775 100.52 14.7892C100.52 15.2504 100.596 15.6144 100.748 15.8811C100.907 16.1477 101.122 16.2811 101.391 16.2811Z" fill="#020618"/>
<path d="M111.446 18.1838C110.727 18.1838 110.368 17.8811 110.368 17.2757C110.368 16.6703 110.727 16.3676 111.446 16.3676C111.695 16.3676 111.923 16.2486 112.131 16.0108C112.345 15.7658 112.497 15.5027 112.587 15.2216C112.711 14.8324 112.822 14.5225 112.919 14.2919C113.016 14.0613 113.161 13.8234 113.354 13.5784C112.746 13.3766 112.3 13.0595 112.017 12.627C111.733 12.1946 111.591 11.6108 111.591 10.8757C111.591 10.0757 111.747 9.45225 112.058 9.0054C112.376 8.55856 112.915 8.24504 113.676 8.06486C114.443 7.87748 115.498 7.78378 116.839 7.78378H120.034C120.282 7.78378 120.483 7.87387 120.635 8.05405C120.787 8.22703 120.863 8.46126 120.863 8.75676V17.2757C120.863 17.5423 120.78 17.755 120.614 17.9135C120.455 18.0793 120.241 18.1622 119.971 18.1622C119.729 18.1622 119.525 18.0757 119.359 17.9027C119.2 17.7369 119.121 17.5279 119.121 17.2757V13.9676H116.507C116.003 13.9676 115.615 14.0036 115.346 14.0757C115.076 14.1477 114.869 14.2919 114.723 14.5081C114.585 14.7243 114.454 15.0523 114.329 15.4919C114.108 16.2775 113.724 16.9225 113.178 17.427C112.639 17.9315 112.062 18.1838 111.446 18.1838ZM116.155 12.1514H119.121V9.6H116.155C115.532 9.6 115.01 9.61802 114.589 9.65405C114.174 9.68288 113.859 9.78378 113.645 9.95676C113.437 10.1225 113.334 10.4072 113.334 10.8108C113.334 11.2577 113.441 11.5748 113.655 11.7622C113.87 11.9495 114.184 12.0613 114.599 12.0973C115.021 12.1333 115.539 12.1514 116.155 12.1514Z" fill="#020618"/>
<path d="M135.324 18.0108C133.997 18.0108 132.939 17.8883 132.151 17.6432C131.37 17.391 130.806 16.9766 130.46 16.4C130.122 15.8162 129.952 15.027 129.952 14.0324V11.7622C129.952 10.7676 130.122 9.98198 130.46 9.40541C130.806 8.82162 131.37 8.40721 132.151 8.16216C132.939 7.90991 133.997 7.78378 135.324 7.78378H138.249C138.795 7.78378 139.245 7.88108 139.597 8.07568C139.957 8.26306 140.223 8.55495 140.396 8.95135C140.569 9.34054 140.655 9.83784 140.655 10.4432C140.655 10.8324 140.579 11.1315 140.427 11.3405C140.282 11.5495 140.067 11.6541 139.784 11.6541C139.507 11.6541 139.293 11.5568 139.141 11.3622C138.989 11.1604 138.913 10.8829 138.913 10.5297C138.913 10.1694 138.858 9.92432 138.747 9.79459C138.636 9.66486 138.422 9.6 138.104 9.6H135.324C134.28 9.6 133.499 9.65405 132.981 9.76216C132.462 9.86306 132.116 10.0721 131.943 10.3892C131.777 10.7063 131.694 11.1856 131.694 11.827V13.9676C131.694 14.6018 131.777 15.0811 131.943 15.4054C132.116 15.7225 132.462 15.9351 132.981 16.0432C133.499 16.1441 134.28 16.1946 135.324 16.1946H138.104C138.429 16.1946 138.643 16.1333 138.747 16.0108C138.858 15.8883 138.913 15.6468 138.913 15.2865C138.913 14.9477 138.985 14.6739 139.131 14.4649C139.276 14.2486 139.487 14.1405 139.763 14.1405C140.033 14.1405 140.247 14.245 140.406 14.4541C140.572 14.6559 140.655 14.9622 140.655 15.373C140.655 15.9712 140.569 16.4685 140.396 16.8649C140.223 17.2541 139.957 17.5423 139.597 17.7297C139.245 17.9171 138.795 18.0108 138.249 18.0108H135.324Z" fill="#020618"/>
<path d="M143.207 18.0108V7.78378H150.197C151.359 7.78378 152.268 8.04685 152.925 8.57297C153.582 9.09189 153.91 9.81622 153.91 10.7459C153.91 11.2144 153.831 11.6216 153.672 11.9676C153.513 12.3135 153.277 12.5946 152.966 12.8108C153.595 13.3441 153.91 14.0829 153.91 15.027C153.91 15.6468 153.761 16.1802 153.464 16.627C153.167 17.0739 152.742 17.4162 152.188 17.6541C151.635 17.8919 150.972 18.0108 150.197 18.0108H143.207ZM144.949 16.1946H150.052C151.462 16.1946 152.168 15.8486 152.168 15.1568C152.168 14.6018 152.012 14.2126 151.701 13.9892C151.397 13.7586 150.875 13.6432 150.135 13.6432H144.949V16.1946ZM144.949 11.827H150.135C150.979 11.827 151.532 11.7514 151.794 11.6C152.057 11.4414 152.188 11.1207 152.188 10.6378C152.188 9.94595 151.476 9.6 150.052 9.6H144.949V11.827Z" fill="#020618"/>
<path d="M156.577 18.1838C155.858 18.1838 155.499 17.8811 155.499 17.2757C155.499 16.6703 155.858 16.3676 156.577 16.3676C156.826 16.3676 157.054 16.2486 157.262 16.0108C157.476 15.7658 157.628 15.5027 157.718 15.2216C157.842 14.8324 157.953 14.5225 158.05 14.2919C158.147 14.0613 158.292 13.8234 158.485 13.5784C157.877 13.3766 157.431 13.0595 157.148 12.627C156.864 12.1946 156.722 11.6108 156.722 10.8757C156.722 10.0757 156.878 9.45225 157.189 9.0054C157.507 8.55856 158.046 8.24504 158.807 8.06486C159.574 7.87748 160.629 7.78378 161.97 7.78378H165.164C165.413 7.78378 165.614 7.87387 165.766 8.05405C165.918 8.22703 165.994 8.46126 165.994 8.75676V17.2757C165.994 17.5423 165.911 17.755 165.745 17.9135C165.586 18.0793 165.372 18.1622 165.102 18.1622C164.86 18.1622 164.656 18.0757 164.49 17.9027C164.331 17.7369 164.252 17.5279 164.252 17.2757V13.9676H161.638C161.134 13.9676 160.746 14.0036 160.477 14.0757C160.207 14.1477 160 14.2919 159.854 14.5081C159.716 14.7243 159.585 15.0523 159.46 15.4919C159.239 16.2775 158.855 16.9225 158.309 17.427C157.77 17.9315 157.192 18.1838 156.577 18.1838ZM161.286 12.1514H164.252V9.6H161.286C160.663 9.6 160.141 9.61802 159.72 9.65405C159.305 9.68288 158.99 9.78378 158.776 9.95676C158.568 10.1225 158.465 10.4072 158.465 10.8108C158.465 11.2577 158.572 11.5748 158.786 11.7622C159.001 11.9495 159.315 12.0613 159.73 12.0973C160.152 12.1333 160.67 12.1514 161.286 12.1514Z" fill="#020618"/>
<path d="M170.967 18.0108C170.075 18.0108 169.449 17.7766 169.089 17.3081C168.737 16.8396 168.561 16.0288 168.561 14.8757C168.561 14.1405 168.851 13.773 169.432 13.773C170.013 13.773 170.303 14.1405 170.303 14.8757V15.2649C170.303 15.6468 170.351 15.8991 170.448 16.0216C170.552 16.1369 170.773 16.1946 171.112 16.1946H174.908C176.65 16.1946 177.521 15.8919 177.521 15.2865C177.521 14.6883 177.331 14.2667 176.951 14.0216C176.577 13.7694 175.924 13.6432 174.991 13.6432H173.207C172.488 13.6432 172.128 13.355 172.128 12.7784C172.128 12.1441 172.488 11.827 173.207 11.827H174.991C175.675 11.827 176.201 11.791 176.567 11.7189C176.934 11.6396 177.186 11.5063 177.324 11.3189C177.469 11.1243 177.542 10.8541 177.542 10.5081C177.542 9.9027 176.664 9.6 174.908 9.6H171.112C170.773 9.6 170.552 9.66126 170.448 9.78378C170.351 9.8991 170.303 10.1477 170.303 10.5297V10.9189C170.303 11.6541 170.013 12.0216 169.432 12.0216C168.851 12.0216 168.561 11.6541 168.561 10.9189C168.561 9.76577 168.737 8.95495 169.089 8.48649C169.449 8.01802 170.075 7.78378 170.967 7.78378H175.053C176.443 7.78378 177.49 8.02883 178.195 8.51892C178.908 9.00901 179.264 9.74414 179.264 10.7243C179.264 11.2 179.184 11.6144 179.025 11.9676C178.873 12.3135 178.638 12.5946 178.32 12.8108C178.949 13.3369 179.264 14.0901 179.264 15.0703C179.264 16.0504 178.908 16.7856 178.195 17.2757C177.49 17.7658 176.443 18.0108 175.053 18.0108H170.967Z" fill="#020618"/>
<path d="M181.896 18.0108V8.69189C181.896 7.98558 182.187 7.63243 182.768 7.63243C183.348 7.63243 183.639 7.98558 183.639 8.69189V11.827H188.098C188.894 11.827 189.564 11.9495 190.11 12.1946C190.664 12.4324 191.085 12.782 191.376 13.2432C191.666 13.6973 191.811 14.2559 191.811 14.9189C191.811 15.5748 191.666 16.1333 191.376 16.5946C191.092 17.0486 190.674 17.3946 190.121 17.6324C189.568 17.8703 188.894 17.9964 188.098 18.0108H181.896ZM183.639 16.1946H187.912C188.486 16.1946 188.987 16.1225 189.416 15.9784C189.851 15.827 190.069 15.5099 190.069 15.027C190.069 14.6306 189.986 14.3351 189.82 14.1405C189.661 13.9387 189.423 13.8054 189.104 13.7405C188.786 13.6757 188.389 13.6432 187.912 13.6432H183.639V16.1946Z" fill="#020618"/>
<defs>
<linearGradient id="paint0_linear_4635_6219" x1="34.8113" y1="14.4512" x2="10.201" y2="14.4512" gradientUnits="userSpaceOnUse">
<stop stop-color="#2CDEE2"/>
<stop offset="1" stop-color="#228487"/>
</linearGradient>
<linearGradient id="paint1_linear_4635_6219" x1="34.8113" y1="14.4512" x2="10.201" y2="14.4512" gradientUnits="userSpaceOnUse">
<stop stop-color="#2CDEE2"/>
<stop offset="1" stop-color="#228487"/>
</linearGradient>
<linearGradient id="paint2_linear_4635_6219" x1="0" y1="8.12143" x2="30.1483" y2="8.12143" gradientUnits="userSpaceOnUse">
<stop stop-color="#4F4E4C"/>
<stop offset="1" stop-color="#888586"/>
</linearGradient>
</defs>
</svg>
