<svg width="35" height="24" viewBox="0 0 35 24" fill="none" xmlns="http://www.w3.org/2000/svg">
<g opacity="0.3">
<path d="M22.6357 7.48634L20.5633 5.15483H12.2734L15.1231 8.00445L22.6357 7.48634Z" fill="#62748E" fill-opacity="0.5"/>
<path d="M34.8114 15.5171L31.4436 12.4084C27.0915 14.4809 15.4685 14.999 10.201 14.999L15.1231 23.5479L34.8114 15.5171Z" fill="#62748E" fill-opacity="0.5"/>
<path d="M15.3821 2.04615L17.4545 4.11861C15.6412 3.9459 11.8071 3.60049 10.9781 3.60049C10.1491 3.60049 10.2873 4.46401 10.46 4.89577L14.6049 9.29973L27.0396 8.52256L30.1483 11.6312C25.2262 12.9265 14.4495 15.5689 10.7191 15.7762C6.98866 15.9834 4.67442 13.9628 3.9836 12.9265C2.77467 10.1633 0.304992 4.53309 0.0977462 4.11861C-0.16131 3.6005 -0.16131 1.52804 3.46548 0.491813C6.36692 -0.337168 12.6188 1.18263 15.3821 2.04615Z" fill="#62748E"/>
</g>
</svg>
