<svg width="50" height="50" viewBox="0 0 50 50" fill="none" xmlns="http://www.w3.org/2000/svg">
<path d="M25 0.625C20.1791 0.625 15.4664 2.05457 11.458 4.73293C7.44954 7.41129 4.32533 11.2181 2.48045 15.6721C0.635561 20.126 0.152855 25.027 1.09337 29.7553C2.03388 34.4836 4.35538 38.8268 7.76428 42.2357C11.1732 45.6446 15.5164 47.9661 20.2447 48.9066C24.973 49.8472 29.874 49.3644 34.3279 47.5196C38.7819 45.6747 42.5887 42.5505 45.2671 38.542C47.9454 34.5336 49.375 29.8209 49.375 25C49.3626 18.5392 46.7906 12.3465 42.2221 7.77796C37.6535 3.20944 31.4609 0.637389 25 0.625ZM33.5313 26.5703L22.2813 34.0703C21.971 34.2623 21.6148 34.3675 21.25 34.375C20.9408 34.3748 20.6359 34.3025 20.3594 34.1641C20.0596 34.0023 19.8096 33.7619 19.6362 33.4687C19.4627 33.1755 19.3725 32.8406 19.375 32.5V17.5C19.3725 17.1594 19.4627 16.8245 19.6362 16.5313C19.8096 16.2381 20.0596 15.9977 20.3594 15.8359C20.6604 15.6836 20.9958 15.6121 21.3327 15.6286C21.6697 15.645 21.9965 15.7488 22.2813 15.9297L33.5313 23.4297C33.7924 23.6001 34.0069 23.8329 34.1554 24.1071C34.3039 24.3813 34.3817 24.6882 34.3817 25C34.3817 25.3118 34.3039 25.6187 34.1554 25.8929C34.0069 26.1671 33.7924 26.3999 33.5313 26.5703Z" fill="white"/>
</svg>
