<svg width="286" height="159" viewBox="0 0 286 159" fill="none" xmlns="http://www.w3.org/2000/svg">
<g opacity="0.3">
<path d="M241.11 29.3207C232.117 24.8489 222 23.1443 212.038 24.4225C202.076 25.7007 192.717 29.9042 185.144 36.5015C177.571 43.0988 172.124 51.7936 169.493 61.4863C166.862 71.1791 167.163 81.4344 170.361 90.9556C173.558 100.477 179.506 108.836 187.454 114.976C195.402 121.117 204.992 124.762 215.012 125.452C225.032 126.142 235.032 123.845 243.746 118.852C252.461 113.859 259.499 106.394 263.97 97.4006C269.94 85.3368 270.886 71.3989 266.602 58.639C262.317 45.879 253.151 35.3368 241.11 29.3207ZM204.587 102.772C203.549 102.257 202.688 101.444 202.111 100.439C201.535 99.4334 201.27 98.2796 201.35 97.1235C201.429 95.9673 201.85 94.8608 202.559 93.9437C203.267 93.0266 204.232 92.3402 205.33 91.9713C206.429 91.6024 207.612 91.5676 208.731 91.8712C209.849 92.1748 210.852 92.8033 211.613 93.6771C212.375 94.5509 212.86 95.6308 213.007 96.7802C213.155 97.9297 212.958 99.0971 212.442 100.135C211.75 101.526 210.534 102.586 209.061 103.081C207.587 103.575 205.978 103.464 204.587 102.772ZM218.715 83.132L218.52 83.5255C218.058 84.4531 217.247 85.1595 216.265 85.4893C215.283 85.8191 214.21 85.7452 213.283 85.284C212.355 84.8227 211.649 84.0118 211.319 83.0297C210.989 82.0476 211.063 80.9747 211.524 80.047L213.263 76.5493C213.725 75.6217 214.536 74.9153 215.518 74.5855C216.5 74.2557 217.573 74.3296 218.5 74.7909C220.23 75.6508 222.175 75.9786 224.091 75.7328C226.007 75.487 227.807 74.6786 229.263 73.4099C230.719 72.1412 231.767 70.4691 232.273 68.6052C232.779 66.7412 232.721 64.769 232.106 62.938C231.491 61.107 230.347 59.4994 228.819 58.3186C227.29 57.1378 225.446 56.4367 223.519 56.304C221.592 56.1714 219.669 56.6131 217.993 57.5733C216.318 58.5335 214.964 59.9691 214.104 61.6986C213.643 62.6262 212.832 63.3326 211.85 63.6624C210.868 63.9922 209.795 63.9183 208.867 63.4571C207.94 62.9958 207.233 62.1849 206.903 61.2028C206.574 60.2207 206.647 59.1478 207.109 58.2201C208.582 55.2572 210.862 52.7703 213.686 51.0454C216.51 49.3206 219.763 48.4279 223.072 48.47C226.381 48.512 229.61 49.4872 232.39 51.2834C235.169 53.0795 237.384 55.6236 238.782 58.6231C240.179 61.6226 240.702 64.9556 240.289 68.2388C239.877 71.522 238.546 74.6221 236.449 77.1824C234.353 79.7428 231.577 81.6594 228.439 82.7119C225.302 83.7644 221.932 83.91 218.715 83.132Z" fill="white"/>
</g>
<g opacity="0.3">
<path d="M95.728 83.5407C90.212 85.5998 85.4305 89.2485 81.9882 94.0251C78.5459 98.8018 76.5973 104.492 76.3889 110.376C76.1805 116.26 77.7216 122.074 80.8173 127.082C83.9131 132.09 88.4244 136.068 93.7808 138.513C99.1373 140.957 105.098 141.758 110.91 140.814C116.722 139.871 122.123 137.225 126.431 133.212C130.739 129.198 133.76 123.998 135.113 118.267C136.465 112.537 136.088 106.534 134.029 101.018C131.255 93.6313 125.667 87.6445 118.488 84.3687C111.31 81.0929 103.126 80.7952 95.728 83.5407ZM112.547 128.592C111.91 128.83 111.217 128.874 110.556 128.718C109.895 128.561 109.295 128.213 108.832 127.716C108.369 127.219 108.064 126.595 107.955 125.925C107.846 125.254 107.938 124.567 108.22 123.948C108.502 123.33 108.961 122.81 109.539 122.453C110.117 122.095 110.788 121.918 111.467 121.942C112.146 121.966 112.802 122.191 113.353 122.588C113.905 122.985 114.326 123.537 114.563 124.173C114.882 125.027 114.848 125.972 114.47 126.8C114.092 127.629 113.4 128.274 112.547 128.592ZM109.796 114.678L109.887 114.92C110.099 115.489 110.077 116.119 109.825 116.671C109.572 117.224 109.111 117.653 108.542 117.866C107.973 118.078 107.343 118.056 106.791 117.804C106.238 117.552 105.808 117.09 105.596 116.521L104.795 114.376C104.583 113.807 104.605 113.177 104.857 112.625C105.109 112.072 105.57 111.642 106.139 111.43C107.2 111.034 108.12 110.332 108.782 109.414C109.444 108.495 109.818 107.401 109.859 106.269C109.899 105.138 109.602 104.02 109.007 103.056C108.412 102.093 107.544 101.328 106.514 100.858C105.484 100.388 104.337 100.234 103.22 100.416C102.102 100.597 101.063 101.106 100.235 101.878C99.4065 102.649 98.8255 103.65 98.5654 104.752C98.3054 105.854 98.3779 107.008 98.7739 108.069C98.9863 108.638 98.964 109.268 98.7119 109.82C98.4598 110.373 97.9985 110.803 97.4295 111.015C96.8605 111.227 96.2305 111.205 95.6779 110.953C95.1254 110.701 94.6957 110.239 94.4833 109.671C93.8049 107.853 93.6532 105.881 94.0457 103.982C94.4382 102.082 95.3589 100.331 96.7021 98.9318C98.0452 97.5321 99.7561 96.54 101.638 96.0695C103.52 95.599 105.496 95.6693 107.34 96.2723C109.184 96.8752 110.82 97.9864 112.06 99.4779C113.301 100.969 114.095 102.781 114.351 104.704C114.608 106.626 114.317 108.583 113.511 110.347C112.705 112.112 111.418 113.613 109.796 114.678Z" fill="white"/>
</g>
<g opacity="0.3">
<path d="M32.7361 16.59C29.7526 15.3336 26.4636 14.9902 23.2849 15.6031C20.1063 16.216 17.1808 17.7578 14.8783 20.0334C12.5759 22.309 11 25.2162 10.3498 28.3875C9.69966 31.5587 10.0045 34.8515 11.2258 37.8495C12.447 40.8475 14.5299 43.4161 17.2109 45.2303C19.892 47.0446 23.0508 48.023 26.288 48.042C29.5251 48.061 32.6952 47.1196 35.3974 45.3369C38.0995 43.5543 40.2123 41.0103 41.4687 38.0269C43.1447 34.0253 43.1668 29.5226 41.5301 25.5047C39.8934 21.4869 36.7312 18.2813 32.7361 16.59ZM22.4749 40.9576C22.1307 40.8126 21.8371 40.5688 21.6314 40.2571C21.4257 39.9453 21.3171 39.5795 21.3193 39.206C21.3215 38.8325 21.4344 38.468 21.6437 38.1586C21.8531 37.8493 22.1494 37.6089 22.4954 37.468C22.8413 37.3271 23.2212 37.2919 23.5871 37.367C23.9531 37.442 24.2885 37.6238 24.5511 37.8895C24.8136 38.1551 24.9915 38.4927 25.0623 38.8595C25.133 39.2262 25.0934 39.6057 24.9484 39.95C24.754 40.4116 24.3842 40.7771 23.9203 40.9661C23.4565 41.155 22.9365 41.152 22.4749 40.9576ZM26.622 34.3535L26.567 34.484C26.4375 34.7918 26.1909 35.0355 25.8817 35.1614C25.5724 35.2874 25.2258 35.2854 24.9181 35.1558C24.6103 35.0262 24.3666 34.7797 24.2407 34.4704C24.1147 34.1612 24.1167 33.8145 24.2463 33.5068L24.7349 32.3464C24.8645 32.0387 25.1111 31.795 25.4203 31.669C25.7296 31.5431 26.0762 31.5451 26.3839 31.6747C26.9577 31.9163 27.5902 31.9823 28.2015 31.8645C28.8127 31.7466 29.3753 31.4501 29.8181 31.0125C30.2609 30.5749 30.564 30.0158 30.689 29.4059C30.814 28.7961 30.7554 28.1628 30.5205 27.5863C30.2857 27.0098 29.8851 26.5158 29.3695 26.1669C28.854 25.818 28.2465 25.6299 27.624 25.6262C27.0014 25.6226 26.3918 25.8036 25.8722 26.1464C25.3525 26.4892 24.9462 26.9785 24.7046 27.5522C24.575 27.86 24.3285 28.1036 24.0192 28.2296C23.71 28.3556 23.3634 28.3535 23.0556 28.2239C22.7479 28.0944 22.5042 27.8478 22.3782 27.5386C22.2522 27.2293 22.2543 26.8827 22.3839 26.575C22.7978 25.592 23.4808 24.7458 24.3543 24.1338C25.2277 23.5217 26.2562 23.1687 27.3214 23.1152C28.3867 23.0617 29.4453 23.31 30.3757 23.8315C31.3061 24.353 32.0704 25.1265 32.5807 26.0631C33.091 26.9996 33.3265 28.0612 33.2603 29.1257C33.194 30.1902 32.8286 31.2144 32.2062 32.0805C31.5837 32.9466 30.7294 33.6193 29.7415 34.0214C28.7537 34.4235 27.6724 34.5386 26.622 34.3535Z" fill="white"/>
</g>
</svg>
