<svg width="110" height="61" viewBox="0 0 110 61" fill="none" xmlns="http://www.w3.org/2000/svg">
<g opacity="0.3">
<path d="M87.1623 13.8532C83.9112 12.2366 80.2538 11.6204 76.6525 12.0825C73.0512 12.5445 69.6679 14.0641 66.9302 16.4491C64.1926 18.834 62.2236 21.9772 61.2724 25.4812C60.3211 28.9852 60.4303 32.6925 61.586 36.1345C62.7418 39.5764 64.8922 42.5983 67.7654 44.8181C70.6387 47.0378 74.1056 48.3557 77.7278 48.6051C81.35 48.8545 84.9649 48.0242 88.1152 46.2191C91.2655 44.4141 93.8098 41.7154 95.4264 38.4644C97.5845 34.1032 97.9265 29.0646 96.3776 24.4519C94.8287 19.8391 91.5151 16.028 87.1623 13.8532ZM73.9589 40.4063C73.5838 40.2198 73.2724 39.9262 73.0641 39.5627C72.8558 39.1992 72.76 38.7821 72.7888 38.3642C72.8176 37.9462 72.9696 37.5462 73.2258 37.2147C73.4819 36.8831 73.8306 36.635 74.2277 36.5017C74.6249 36.3683 75.0526 36.3557 75.4569 36.4655C75.8612 36.5752 76.2239 36.8024 76.4991 37.1183C76.7743 37.4342 76.9496 37.8246 77.0029 38.2401C77.0563 38.6556 76.9852 39.0776 76.7986 39.4528C76.5485 39.9558 76.1088 40.3388 75.5762 40.5177C75.0437 40.6965 74.4619 40.6564 73.9589 40.4063ZM79.0664 33.3062L78.9957 33.4484C78.829 33.7838 78.5358 34.0392 78.1808 34.1584C77.8257 34.2776 77.4379 34.2509 77.1025 34.0841C76.7672 33.9174 76.5118 33.6243 76.3926 33.2692C76.2734 32.9142 76.3001 32.5263 76.4668 32.191L77.0956 30.9265C77.2623 30.5912 77.5555 30.3358 77.9105 30.2166C78.2655 30.0974 78.6534 30.1241 78.9887 30.2908C79.6139 30.6017 80.3173 30.7202 81.0098 30.6314C81.7024 30.5425 82.353 30.2503 82.8795 29.7916C83.406 29.333 83.7846 28.7285 83.9676 28.0547C84.1505 27.3809 84.1295 26.6679 83.9072 26.006C83.685 25.3441 83.2714 24.7629 82.7189 24.3361C82.1664 23.9092 81.4996 23.6557 80.8031 23.6078C80.1065 23.5598 79.4113 23.7195 78.8055 24.0666C78.1997 24.4137 77.7104 24.9327 77.3995 25.5579C77.2327 25.8933 76.9396 26.1487 76.5846 26.2679C76.2295 26.3871 75.8417 26.3604 75.5063 26.1936C75.171 26.0269 74.9156 25.7337 74.7964 25.3787C74.6772 25.0237 74.7039 24.6358 74.8706 24.3005C75.4032 23.2293 76.2274 22.3303 77.2482 21.7068C78.2691 21.0832 79.4453 20.7605 80.6414 20.7757C81.8375 20.791 83.0051 21.1435 84.0098 21.7928C85.0144 22.4421 85.8154 23.3618 86.3206 24.4461C86.8258 25.5305 87.0147 26.7354 86.8655 27.9223C86.7163 29.1091 86.2352 30.2298 85.4773 31.1554C84.7195 32.081 83.7158 32.7739 82.5817 33.1543C81.4476 33.5348 80.2291 33.5875 79.0664 33.3062Z" fill="white"/>
</g>
<g opacity="0.3">
<path d="M34.606 33.454C32.6119 34.1984 30.8834 35.5174 29.639 37.2442C28.3946 38.9709 27.6902 41.028 27.6148 43.1551C27.5395 45.2822 28.0966 47.3839 29.2157 49.1944C30.3349 51.0049 31.9657 52.4429 33.9021 53.3265C35.8385 54.2102 37.9934 54.4997 40.0943 54.1586C42.1953 53.8176 44.1479 52.8611 45.7053 51.4103C47.2627 49.9595 48.3549 48.0794 48.8438 46.0078C49.3326 43.9363 49.1962 41.7663 48.4518 39.7722C47.4491 37.1018 45.429 34.9375 42.8339 33.7533C40.2388 32.5691 37.2803 32.4615 34.606 33.454ZM40.686 49.7404C40.4559 49.8263 40.2055 49.842 39.9665 49.7856C39.7274 49.7292 39.5105 49.6032 39.3431 49.4235C39.1757 49.2438 39.0654 49.0185 39.026 48.776C38.9866 48.5336 39.0201 48.285 39.122 48.0616C39.224 47.8381 39.3899 47.65 39.5988 47.5208C39.8077 47.3917 40.0502 47.3274 40.2956 47.3361C40.5411 47.3448 40.7784 47.4261 40.9777 47.5697C41.1769 47.7132 41.3291 47.9127 41.415 48.1428C41.5302 48.4513 41.5181 48.793 41.3814 49.0926C41.2446 49.3922 40.9945 49.6252 40.686 49.7404ZM39.6918 44.7103L39.7244 44.7976C39.8012 45.0033 39.7931 45.231 39.7019 45.4308C39.6108 45.6305 39.444 45.7859 39.2384 45.8627C39.0327 45.9394 38.8049 45.9314 38.6052 45.8402C38.4054 45.7491 38.2501 45.5823 38.1733 45.3766L37.8838 44.6011C37.807 44.3954 37.815 44.1676 37.9062 43.9679C37.9973 43.7682 38.1641 43.6128 38.3698 43.536C38.7533 43.3929 39.0857 43.1392 39.325 42.8071C39.5643 42.4751 39.6997 42.0795 39.7142 41.6704C39.7287 41.2614 39.6216 40.8572 39.4064 40.509C39.1912 40.1608 38.8775 39.8843 38.5051 39.7144C38.1328 39.5445 37.7184 39.4888 37.3143 39.5544C36.9103 39.62 36.5348 39.8039 36.2353 40.0829C35.9358 40.3619 35.7258 40.7235 35.6317 41.1218C35.5377 41.5202 35.564 41.9375 35.7071 42.321C35.7839 42.5267 35.7758 42.7544 35.6847 42.9542C35.5935 43.1539 35.4268 43.3093 35.2211 43.386C35.0154 43.4628 34.7876 43.4548 34.5879 43.3636C34.3882 43.2725 34.2328 43.1057 34.156 42.9C33.9108 42.2431 33.8559 41.5302 33.9978 40.8434C34.1397 40.1567 34.4726 39.5239 34.9581 39.0179C35.4437 38.5119 36.0622 38.1533 36.7425 37.9832C37.4228 37.8131 38.1373 37.8385 38.8039 38.0565C39.4704 38.2745 40.0619 38.6762 40.5102 39.2153C40.9586 39.7545 41.2457 40.4093 41.3384 41.1044C41.4312 41.7995 41.3259 42.5067 41.0346 43.1446C40.7433 43.7825 40.2778 44.3252 39.6918 44.7103Z" fill="white"/>
</g>
<g opacity="0.3">
<path d="M11.8342 9.25141C10.7556 8.79724 9.56664 8.67309 8.41754 8.89467C7.26844 9.11624 6.21086 9.67358 5.37852 10.4962C4.54618 11.3189 3.97647 12.3698 3.74144 13.5163C3.50641 14.6627 3.61661 15.853 4.0581 16.9368C4.49959 18.0206 5.25256 18.9492 6.22177 19.605C7.19098 20.2609 8.3329 20.6146 9.50315 20.6215C10.6734 20.6283 11.8194 20.288 12.7962 19.6436C13.7731 18.9991 14.5369 18.0795 14.991 17.0009C15.5969 15.5543 15.6049 13.9266 15.0132 12.4741C14.4215 11.0217 13.2784 9.86285 11.8342 9.25141ZM8.12471 18.0604C8.00026 18.008 7.89415 17.9199 7.81979 17.8072C7.74543 17.6945 7.70617 17.5622 7.70696 17.4272C7.70775 17.2922 7.74856 17.1604 7.82424 17.0486C7.89992 16.9367 8.00705 16.8499 8.13211 16.7989C8.25716 16.748 8.39451 16.7353 8.52679 16.7624C8.65907 16.7895 8.78033 16.8552 8.87525 16.9513C8.97017 17.0473 9.03448 17.1693 9.06005 17.3019C9.08562 17.4345 9.07129 17.5717 9.01889 17.6962C8.94861 17.863 8.81493 17.9952 8.64724 18.0635C8.47955 18.1318 8.29159 18.1307 8.12471 18.0604ZM9.62391 15.673L9.60403 15.7202C9.55719 15.8314 9.46806 15.9195 9.35627 15.9651C9.24447 16.0106 9.11917 16.0099 9.00792 15.963C8.89666 15.9162 8.80858 15.8271 8.76304 15.7153C8.7175 15.6035 8.71823 15.4782 8.76508 15.3669L8.94172 14.9474C8.98857 14.8362 9.07769 14.7481 9.18949 14.7026C9.30128 14.657 9.42659 14.6578 9.53784 14.7046C9.74525 14.7919 9.9739 14.8158 10.1949 14.7732C10.4159 14.7306 10.6192 14.6234 10.7793 14.4652C10.9394 14.307 11.0489 14.1049 11.0941 13.8844C11.1393 13.664 11.1181 13.4351 11.0332 13.2266C10.9483 13.0182 10.8035 12.8396 10.6171 12.7135C10.4308 12.5874 10.2112 12.5194 9.98611 12.5181C9.76107 12.5167 9.54068 12.5822 9.35283 12.7061C9.16498 12.83 9.01809 13.0069 8.93075 13.2143C8.8839 13.3256 8.79478 13.4136 8.68299 13.4592C8.57119 13.5047 8.44589 13.504 8.33463 13.4571C8.22338 13.4103 8.1353 13.3212 8.08976 13.2094C8.04422 13.0976 8.04495 12.9723 8.0918 12.861C8.24144 12.5057 8.48834 12.1998 8.8041 11.9785C9.11986 11.7573 9.49167 11.6296 9.87675 11.6103C10.2618 11.591 10.6445 11.6807 10.9809 11.8693C11.3172 12.0578 11.5935 12.3374 11.778 12.676C11.9625 13.0146 12.0476 13.3983 12.0237 13.7831C11.9997 14.168 11.8676 14.5382 11.6426 14.8513C11.4176 15.1644 11.1087 15.4076 10.7516 15.553C10.3945 15.6983 10.0036 15.7399 9.62391 15.673Z" fill="white"/>
</g>
</svg>
