<svg width="29" height="30" viewBox="0 0 29 30" fill="none" xmlns="http://www.w3.org/2000/svg">
<g clip-path="url(#clip0_4616_2678)">
<mask id="mask0_4616_2678" style="mask-type:luminance" maskUnits="userSpaceOnUse" x="0" y="0" width="29" height="30">
<path d="M0.470581 0.882324H28.7059V29.1176H0.470581V0.882324Z" fill="white"/>
</mask>
<g mask="url(#mask0_4616_2678)">
<path fill-rule="evenodd" clip-rule="evenodd" d="M14.5882 29.1176C22.3854 29.1176 28.7059 22.7971 28.7059 15C28.7059 7.2028 22.3854 0.882324 14.5882 0.882324C6.79105 0.882324 0.470581 7.2028 0.470581 15C0.470581 22.7971 6.79105 29.1176 14.5882 29.1176Z" fill="#F4F1E9"/>
<path d="M13.7235 5.11761L13.6558 14.4042L16.2936 15.9628V9.5915L13.7235 5.11761Z" fill="#FAB719"/>
<path d="M13.7221 16.6404V25.5882L16.2915 20.9788V18.2675L13.7221 16.6404Z" fill="#61B42C"/>
<path d="M23.0581 19.6249L6.82355 9.5929L9.25884 13.9312L18.4579 19.6249H23.0581Z" fill="#208BC9"/>
<path d="M13.7221 5.11761L23.0567 10.8113H18.4564L16.2922 9.5915L13.7214 5.11761H13.7221Z" fill="#F77C1C"/>
<path d="M16.2944 12.2753L18.4593 10.8113H23.0588L16.2944 15.2852V12.276V12.2753Z" fill="#D60B4C"/>
<path d="M16.2922 20.9767L18.4565 19.6214H23.0567L13.7221 25.5861L16.2922 20.9767Z" fill="#097F2D"/>
<path d="M6.82355 9.5929V20.9809L9.12331 16.7781L9.25884 13.9312L6.82355 9.5929Z" fill="#5B59A1"/>
<path d="M11.4506 15.2866L9.12331 16.7781L6.82355 20.9809L13.7228 16.6426L11.4499 15.2873L11.4506 15.2866Z" fill="#9F4393"/>
</g>
</g>
<defs>
<clipPath id="clip0_4616_2678">
<rect width="28.2353" height="28.2353" fill="white" transform="translate(0.470581 0.882324)"/>
</clipPath>
</defs>
</svg>
