<svg width="29" height="30" viewBox="0 0 29 30" fill="none" xmlns="http://www.w3.org/2000/svg">
<g clip-path="url(#clip0_4616_2692)">
<path d="M29 15.003C29 22.8025 22.6838 29.1177 14.8867 29.1177C7.08853 29.1177 0.764709 22.8025 0.764709 15.003C0.764709 7.20365 7.08853 0.882324 14.8867 0.882324C22.6838 0.882324 29 7.20365 29 15.003Z" fill="#8B3FFD"/>
<path fill-rule="evenodd" clip-rule="evenodd" d="M24.7647 15C24.7647 18.8984 21.6676 22.0588 17.8471 22.0588C14.6632 22.0588 11.9818 19.864 11.1765 16.8764V20.5462H8.45882L5 9.95794H11.1765V13.1236C11.9818 10.136 14.6632 7.94116 17.8471 7.94116C21.6676 7.94116 24.7647 11.1015 24.7647 15ZM20.3176 15C20.3176 13.6077 19.2115 12.479 17.8471 12.479C16.4826 12.479 15.3765 13.6077 15.3765 15C15.3765 16.3923 16.4826 17.521 17.8471 17.521C19.2115 17.521 20.3176 16.3923 20.3176 15Z" fill="white"/>
</g>
<defs>
<clipPath id="clip0_4616_2692">
<rect width="28.2353" height="28.2353" fill="white" transform="translate(0.764709 0.882324)"/>
</clipPath>
</defs>
</svg>
